<svg width="404" height="270" viewBox="0 0 404 270" fill="none" xmlns="http://www.w3.org/2000/svg">
<g filter="url(#filter0_d_1_545)">
<path d="M50 58C50 49.1634 57.1634 42 66 42H338C346.837 42 354 49.1634 354 58V195C354 203.837 346.837 211 338 211H66C57.1634 211 50 203.837 50 195V58Z" fill="#131E3A" shape-rendering="crispEdges"/>
<path d="M50 58C50 48.8873 57.3873 41.5 66.5 41.5H337.5C346.613 41.5 354 48.8873 354 58C354 49.4396 346.837 42.5 338 42.5H66C57.1634 42.5 50 49.4396 50 58ZM354 211H50H354ZM50 211V42V211ZM354 42V211V42Z" fill="#D6EF0E"/>
<path d="M71.4091 81V69.3636H78.4318V70.6136H72.8182V74.5455H78.0682V75.7955H72.8182V79.75H78.5227V81H71.4091ZM82.1307 75.75V81H80.7898V72.2727H82.0852V73.6364H82.1989C82.4034 73.1932 82.714 72.8371 83.1307 72.5682C83.5473 72.2955 84.0852 72.1591 84.7443 72.1591C85.3352 72.1591 85.8523 72.2803 86.2955 72.5227C86.7386 72.7614 87.0833 73.125 87.3295 73.6136C87.5758 74.0985 87.6989 74.7121 87.6989 75.4545V81H86.358V75.5455C86.358 74.8598 86.1799 74.3258 85.8239 73.9432C85.4678 73.5568 84.9792 73.3636 84.358 73.3636C83.9299 73.3636 83.5473 73.4564 83.2102 73.642C82.8769 73.8277 82.6136 74.0985 82.4205 74.4545C82.2273 74.8106 82.1307 75.2424 82.1307 75.75ZM93.4446 81.1818C92.7173 81.1818 92.0753 80.9981 91.5185 80.6307C90.9616 80.2595 90.526 79.7367 90.2116 79.0625C89.8973 78.3845 89.7401 77.5833 89.7401 76.6591C89.7401 75.7424 89.8973 74.947 90.2116 74.2727C90.526 73.5985 90.9635 73.0777 91.5241 72.7102C92.0848 72.3428 92.7325 72.1591 93.4673 72.1591C94.0355 72.1591 94.4844 72.2538 94.8139 72.4432C95.1473 72.6288 95.401 72.8409 95.5753 73.0795C95.7533 73.3144 95.8916 73.5076 95.9901 73.6591H96.1037V69.3636H97.4446V81H96.1491V79.6591H95.9901C95.8916 79.8182 95.7514 80.0189 95.5696 80.2614C95.3878 80.5 95.1283 80.714 94.7912 80.9034C94.4541 81.089 94.0052 81.1818 93.4446 81.1818ZM93.6264 79.9773C94.1643 79.9773 94.6188 79.8371 94.9901 79.5568C95.3613 79.2727 95.6435 78.8807 95.8366 78.3807C96.0298 77.8769 96.1264 77.2955 96.1264 76.6364C96.1264 75.9848 96.0317 75.4148 95.8423 74.9261C95.6529 74.4337 95.3726 74.0511 95.0014 73.7784C94.6302 73.5019 94.1719 73.3636 93.6264 73.3636C93.0582 73.3636 92.5848 73.5095 92.206 73.8011C91.831 74.089 91.5488 74.4811 91.3594 74.9773C91.1738 75.4697 91.081 76.0227 91.081 76.6364C91.081 77.2576 91.1757 77.822 91.3651 78.3295C91.5582 78.8333 91.8423 79.2348 92.2173 79.5341C92.5961 79.8295 93.0658 79.9773 93.6264 79.9773ZM106.268 74.2273L105.064 74.5682C104.988 74.3674 104.876 74.1723 104.729 73.983C104.585 73.7898 104.388 73.6307 104.138 73.5057C103.888 73.3807 103.568 73.3182 103.178 73.3182C102.643 73.3182 102.198 73.4413 101.842 73.6875C101.49 73.9299 101.314 74.2386 101.314 74.6136C101.314 74.947 101.435 75.2102 101.678 75.4034C101.92 75.5966 102.299 75.7576 102.814 75.8864L104.109 76.2045C104.89 76.3939 105.471 76.6837 105.854 77.0739C106.236 77.4602 106.428 77.9583 106.428 78.5682C106.428 79.0682 106.284 79.5152 105.996 79.9091C105.712 80.303 105.314 80.6136 104.803 80.8409C104.291 81.0682 103.696 81.1818 103.018 81.1818C102.128 81.1818 101.392 80.9886 100.808 80.6023C100.225 80.2159 99.8556 79.6515 99.7003 78.9091L100.973 78.5909C101.094 79.0606 101.323 79.4129 101.661 79.6477C102.001 79.8826 102.446 80 102.996 80C103.621 80 104.117 79.8674 104.484 79.6023C104.856 79.3333 105.041 79.0114 105.041 78.6364C105.041 78.3333 104.935 78.0795 104.723 77.875C104.511 77.6667 104.185 77.5114 103.746 77.4091L102.291 77.0682C101.492 76.8788 100.905 76.5852 100.53 76.1875C100.159 75.786 99.973 75.2841 99.973 74.6818C99.973 74.1894 100.111 73.7538 100.388 73.375C100.668 72.9962 101.049 72.6989 101.53 72.483C102.015 72.267 102.564 72.1591 103.178 72.1591C104.041 72.1591 104.719 72.3485 105.212 72.7273C105.708 73.1061 106.06 73.6061 106.268 74.2273ZM112.946 81V72.2727H114.287V81H112.946ZM113.628 70.8182C113.366 70.8182 113.141 70.7292 112.952 70.5511C112.766 70.3731 112.673 70.1591 112.673 69.9091C112.673 69.6591 112.766 69.4451 112.952 69.267C113.141 69.089 113.366 69 113.628 69C113.889 69 114.113 69.089 114.298 69.267C114.488 69.4451 114.582 69.6591 114.582 69.9091C114.582 70.1591 114.488 70.3731 114.298 70.5511C114.113 70.7292 113.889 70.8182 113.628 70.8182ZM118.084 75.75V81H116.743V72.2727H118.038V73.6364H118.152C118.357 73.1932 118.667 72.8371 119.084 72.5682C119.5 72.2955 120.038 72.1591 120.697 72.1591C121.288 72.1591 121.805 72.2803 122.249 72.5227C122.692 72.7614 123.036 73.125 123.283 73.6136C123.529 74.0985 123.652 74.7121 123.652 75.4545V81H122.311V75.5455C122.311 74.8598 122.133 74.3258 121.777 73.9432C121.421 73.5568 120.932 73.3636 120.311 73.3636C119.883 73.3636 119.5 73.4564 119.163 73.642C118.83 73.8277 118.567 74.0985 118.374 74.4545C118.18 74.8106 118.084 75.2424 118.084 75.75Z" fill="#D6EF0E"/>
<path d="M75.5057 111.256C74.5284 111.252 73.6875 111.011 72.983 110.534C72.2822 110.057 71.7424 109.366 71.3636 108.46C70.9886 107.555 70.803 106.466 70.8068 105.193C70.8068 103.924 70.9943 102.843 71.3693 101.949C71.7481 101.055 72.2879 100.375 72.9886 99.9091C73.6932 99.4394 74.5322 99.2045 75.5057 99.2045C76.4792 99.2045 77.3163 99.4394 78.017 99.9091C78.7216 100.379 79.2633 101.061 79.642 101.955C80.0208 102.845 80.2083 103.924 80.2045 105.193C80.2045 106.47 80.0152 107.561 79.6364 108.466C79.2614 109.371 78.7235 110.062 78.0227 110.54C77.322 111.017 76.483 111.256 75.5057 111.256ZM75.5057 109.216C76.1723 109.216 76.7045 108.881 77.1023 108.21C77.5 107.54 77.697 106.534 77.6932 105.193C77.6932 104.311 77.6023 103.576 77.4205 102.989C77.2424 102.402 76.9886 101.96 76.6591 101.665C76.3333 101.369 75.9489 101.222 75.5057 101.222C74.8428 101.222 74.3125 101.553 73.9148 102.216C73.517 102.879 73.3163 103.871 73.3125 105.193C73.3125 106.087 73.4015 106.833 73.5795 107.432C73.7614 108.027 74.017 108.473 74.3466 108.773C74.6761 109.068 75.0625 109.216 75.5057 109.216ZM86.2088 111.159C85.4058 111.159 84.6899 111.011 84.0611 110.716C83.4361 110.42 82.9399 110.013 82.5724 109.494C82.205 108.975 82.0137 108.381 81.9986 107.71H84.3849C84.4115 108.161 84.6009 108.527 84.9531 108.807C85.3054 109.087 85.724 109.227 86.2088 109.227C86.5952 109.227 86.9361 109.142 87.2315 108.972C87.5308 108.797 87.7637 108.557 87.9304 108.25C88.1009 107.939 88.1861 107.583 88.1861 107.182C88.1861 106.773 88.099 106.413 87.9247 106.102C87.7543 105.792 87.5175 105.549 87.2145 105.375C86.9115 105.201 86.5649 105.112 86.1747 105.108C85.8338 105.108 85.5024 105.178 85.1804 105.318C84.8622 105.458 84.6141 105.65 84.4361 105.892L82.2486 105.5L82.7997 99.3636H89.9134V101.375H84.8281L84.527 104.29H84.5952C84.7997 104.002 85.1084 103.763 85.5213 103.574C85.9342 103.384 86.3963 103.29 86.9077 103.29C87.6084 103.29 88.2334 103.455 88.7827 103.784C89.3319 104.114 89.7656 104.566 90.0838 105.142C90.402 105.714 90.5592 106.373 90.5554 107.119C90.5592 107.903 90.3774 108.6 90.0099 109.21C89.6463 109.816 89.1368 110.294 88.4815 110.642C87.83 110.987 87.0724 111.159 86.2088 111.159ZM93.7088 109.648C93.3338 109.648 93.0118 109.515 92.7429 109.25C92.4777 108.985 92.3452 108.663 92.3452 108.284C92.3452 107.913 92.4777 107.595 92.7429 107.33C93.0118 107.064 93.3338 106.932 93.7088 106.932C94.0724 106.932 94.3906 107.064 94.6634 107.33C94.9361 107.595 95.0724 107.913 95.0724 108.284C95.0724 108.534 95.008 108.763 94.8793 108.972C94.7543 109.176 94.5895 109.341 94.3849 109.466C94.1804 109.587 93.955 109.648 93.7088 109.648ZM93.7088 103.938C93.3338 103.938 93.0118 103.805 92.7429 103.54C92.4777 103.275 92.3452 102.953 92.3452 102.574C92.3452 102.203 92.4777 101.886 92.7429 101.625C93.0118 101.36 93.3338 101.227 93.7088 101.227C94.0724 101.227 94.3906 101.36 94.6634 101.625C94.9361 101.886 95.0724 102.203 95.0724 102.574C95.0724 102.828 95.008 103.059 94.8793 103.267C94.7543 103.472 94.5895 103.634 94.3849 103.756C94.1804 103.877 93.955 103.938 93.7088 103.938ZM96.8608 108.955V107.017L101.719 99.3636H103.389V102.045H102.401L99.3381 106.892V106.983H106.241V108.955H96.8608ZM102.446 111V108.364L102.491 107.506V99.3636H104.798V111H102.446ZM112.131 111.159C111.328 111.159 110.612 111.011 109.983 110.716C109.358 110.42 108.862 110.013 108.494 109.494C108.127 108.975 107.936 108.381 107.92 107.71H110.307C110.333 108.161 110.523 108.527 110.875 108.807C111.227 109.087 111.646 109.227 112.131 109.227C112.517 109.227 112.858 109.142 113.153 108.972C113.453 108.797 113.686 108.557 113.852 108.25C114.023 107.939 114.108 107.583 114.108 107.182C114.108 106.773 114.021 106.413 113.847 106.102C113.676 105.792 113.439 105.549 113.136 105.375C112.833 105.201 112.487 105.112 112.097 105.108C111.756 105.108 111.424 105.178 111.102 105.318C110.784 105.458 110.536 105.65 110.358 105.892L108.17 105.5L108.722 99.3636H115.835V101.375H110.75L110.449 104.29H110.517C110.722 104.002 111.03 103.763 111.443 103.574C111.856 103.384 112.318 103.29 112.83 103.29C113.53 103.29 114.155 103.455 114.705 103.784C115.254 104.114 115.688 104.566 116.006 105.142C116.324 105.714 116.481 106.373 116.477 107.119C116.481 107.903 116.299 108.6 115.932 109.21C115.568 109.816 115.059 110.294 114.403 110.642C113.752 110.987 112.994 111.159 112.131 111.159ZM119.631 109.648C119.256 109.648 118.934 109.515 118.665 109.25C118.4 108.985 118.267 108.663 118.267 108.284C118.267 107.913 118.4 107.595 118.665 107.33C118.934 107.064 119.256 106.932 119.631 106.932C119.994 106.932 120.313 107.064 120.585 107.33C120.858 107.595 120.994 107.913 120.994 108.284C120.994 108.534 120.93 108.763 120.801 108.972C120.676 109.176 120.511 109.341 120.307 109.466C120.102 109.587 119.877 109.648 119.631 109.648ZM119.631 103.938C119.256 103.938 118.934 103.805 118.665 103.54C118.4 103.275 118.267 102.953 118.267 102.574C118.267 102.203 118.4 101.886 118.665 101.625C118.934 101.36 119.256 101.227 119.631 101.227C119.994 101.227 120.313 101.36 120.585 101.625C120.858 101.886 120.994 102.203 120.994 102.574C120.994 102.828 120.93 103.059 120.801 103.267C120.676 103.472 120.511 103.634 120.307 103.756C120.102 103.877 119.877 103.938 119.631 103.938ZM122.783 108.955V107.017L127.641 99.3636H129.311V102.045H128.322L125.26 106.892V106.983H132.163V108.955H122.783ZM128.368 111V108.364L128.413 107.506V99.3636H130.72V111H128.368ZM134.263 111L139.087 101.455V101.375H133.467V99.3636H141.632V101.403L136.803 111H134.263Z" fill="#FFFFFD"/>
<path d="M258.773 73H257.364C257.28 72.5947 257.134 72.2386 256.926 71.9318C256.722 71.625 256.472 71.3674 256.176 71.1591C255.884 70.947 255.561 70.7879 255.205 70.6818C254.848 70.5758 254.477 70.5227 254.091 70.5227C253.386 70.5227 252.748 70.7008 252.176 71.0568C251.608 71.4129 251.155 71.9375 250.818 72.6307C250.485 73.3239 250.318 74.1742 250.318 75.1818C250.318 76.1894 250.485 77.0398 250.818 77.733C251.155 78.4261 251.608 78.9508 252.176 79.3068C252.748 79.6629 253.386 79.8409 254.091 79.8409C254.477 79.8409 254.848 79.7879 255.205 79.6818C255.561 79.5758 255.884 79.4186 256.176 79.2102C256.472 78.9981 256.722 78.7386 256.926 78.4318C257.134 78.1212 257.28 77.7652 257.364 77.3636H258.773C258.667 77.9583 258.473 78.4905 258.193 78.9602C257.913 79.4299 257.564 79.8295 257.148 80.1591C256.731 80.4848 256.263 80.733 255.744 80.9034C255.229 81.0739 254.678 81.1591 254.091 81.1591C253.098 81.1591 252.216 80.9167 251.443 80.4318C250.67 79.947 250.063 79.2576 249.619 78.3636C249.176 77.4697 248.955 76.4091 248.955 75.1818C248.955 73.9545 249.176 72.8939 249.619 72C250.063 71.1061 250.67 70.4167 251.443 69.9318C252.216 69.447 253.098 69.2045 254.091 69.2045C254.678 69.2045 255.229 69.2898 255.744 69.4602C256.263 69.6307 256.731 69.8807 257.148 70.2102C257.564 70.536 257.913 70.9337 258.193 71.4034C258.473 71.8693 258.667 72.4015 258.773 73ZM266.368 77.4318V72.2727H267.709V81H266.368V79.5227H266.277C266.072 79.9659 265.754 80.3428 265.322 80.6534C264.891 80.9602 264.345 81.1136 263.686 81.1136C263.141 81.1136 262.656 80.9943 262.232 80.7557C261.807 80.5133 261.474 80.1496 261.232 79.6648C260.989 79.1761 260.868 78.5606 260.868 77.8182V72.2727H262.209V77.7273C262.209 78.3636 262.387 78.8712 262.743 79.25C263.103 79.6288 263.561 79.8182 264.118 79.8182C264.451 79.8182 264.79 79.733 265.135 79.5625C265.483 79.392 265.775 79.1307 266.01 78.7784C266.249 78.4261 266.368 77.9773 266.368 77.4318ZM270.165 81V72.2727H271.46V73.5909H271.551C271.71 73.1591 271.998 72.8087 272.415 72.5398C272.831 72.2708 273.301 72.1364 273.824 72.1364C273.922 72.1364 274.045 72.1383 274.193 72.142C274.341 72.1458 274.453 72.1515 274.528 72.1591V73.5227C274.483 73.5114 274.379 73.4943 274.216 73.4716C274.057 73.4451 273.888 73.4318 273.71 73.4318C273.286 73.4318 272.907 73.5208 272.574 73.6989C272.244 73.8731 271.983 74.1155 271.79 74.4261C271.6 74.733 271.506 75.0833 271.506 75.4773V81H270.165ZM276.118 81V72.2727H277.413V73.5909H277.504C277.663 73.1591 277.951 72.8087 278.368 72.5398C278.785 72.2708 279.254 72.1364 279.777 72.1364C279.875 72.1364 279.999 72.1383 280.146 72.142C280.294 72.1458 280.406 72.1515 280.482 72.1591V73.5227C280.436 73.5114 280.332 73.4943 280.169 73.4716C280.01 73.4451 279.841 73.4318 279.663 73.4318C279.239 73.4318 278.86 73.5208 278.527 73.6989C278.197 73.8731 277.936 74.1155 277.743 74.4261C277.554 74.733 277.459 75.0833 277.459 75.4773V81H276.118ZM285.464 81.1818C284.624 81.1818 283.898 80.9962 283.288 80.625C282.682 80.25 282.214 79.7273 281.885 79.0568C281.559 78.3826 281.396 77.5985 281.396 76.7045C281.396 75.8106 281.559 75.0227 281.885 74.3409C282.214 73.6553 282.673 73.1212 283.26 72.7386C283.851 72.3523 284.54 72.1591 285.328 72.1591C285.783 72.1591 286.232 72.2348 286.675 72.3864C287.118 72.5379 287.521 72.7841 287.885 73.125C288.249 73.4621 288.538 73.9091 288.754 74.4659C288.97 75.0227 289.078 75.7083 289.078 76.5227V77.0909H282.351V75.9318H287.714C287.714 75.4394 287.616 75 287.419 74.6136C287.226 74.2273 286.949 73.9223 286.589 73.6989C286.233 73.4754 285.813 73.3636 285.328 73.3636C284.794 73.3636 284.332 73.4962 283.942 73.7614C283.555 74.0227 283.258 74.3636 283.05 74.7841C282.841 75.2045 282.737 75.6553 282.737 76.1364V76.9091C282.737 77.5682 282.851 78.1269 283.078 78.5852C283.309 79.0398 283.629 79.3864 284.038 79.625C284.447 79.8598 284.923 79.9773 285.464 79.9773C285.817 79.9773 286.135 79.928 286.419 79.8295C286.707 79.7273 286.955 79.5758 287.163 79.375C287.372 79.1705 287.533 78.9167 287.646 78.6136L288.942 78.9773C288.805 79.4167 288.576 79.803 288.254 80.1364C287.932 80.4659 287.535 80.7235 287.061 80.9091C286.588 81.0909 286.055 81.1818 285.464 81.1818ZM292.459 75.75V81H291.118V72.2727H292.413V73.6364H292.527C292.732 73.1932 293.042 72.8371 293.459 72.5682C293.875 72.2955 294.413 72.1591 295.072 72.1591C295.663 72.1591 296.18 72.2803 296.624 72.5227C297.067 72.7614 297.411 73.125 297.658 73.6136C297.904 74.0985 298.027 74.7121 298.027 75.4545V81H296.686V75.5455C296.686 74.8598 296.508 74.3258 296.152 73.9432C295.796 73.5568 295.307 73.3636 294.686 73.3636C294.258 73.3636 293.875 73.4564 293.538 73.642C293.205 73.8277 292.942 74.0985 292.749 74.4545C292.555 74.8106 292.459 75.2424 292.459 75.75ZM304.273 72.2727V73.4091H299.75V72.2727H304.273ZM301.068 70.1818H302.409V78.5C302.409 78.8788 302.464 79.1629 302.574 79.3523C302.688 79.5379 302.831 79.6629 303.006 79.7273C303.184 79.7879 303.371 79.8182 303.568 79.8182C303.716 79.8182 303.837 79.8106 303.932 79.7955C304.027 79.7765 304.102 79.7614 304.159 79.75L304.432 80.9545C304.341 80.9886 304.214 81.0227 304.051 81.0568C303.888 81.0947 303.682 81.1136 303.432 81.1136C303.053 81.1136 302.682 81.0322 302.318 80.8693C301.958 80.7064 301.659 80.4583 301.42 80.125C301.186 79.7917 301.068 79.3712 301.068 78.8636V70.1818ZM310.972 81V69.3636H312.312V73.6591H312.426C312.525 73.5076 312.661 73.3144 312.835 73.0795C313.013 72.8409 313.267 72.6288 313.597 72.4432C313.93 72.2538 314.381 72.1591 314.949 72.1591C315.684 72.1591 316.331 72.3428 316.892 72.7102C317.453 73.0777 317.89 73.5985 318.205 74.2727C318.519 74.947 318.676 75.7424 318.676 76.6591C318.676 77.5833 318.519 78.3845 318.205 79.0625C317.89 79.7367 317.455 80.2595 316.898 80.6307C316.341 80.9981 315.699 81.1818 314.972 81.1818C314.411 81.1818 313.962 81.089 313.625 80.9034C313.288 80.714 313.028 80.5 312.847 80.2614C312.665 80.0189 312.525 79.8182 312.426 79.6591H312.267V81H310.972ZM312.29 76.6364C312.29 77.2955 312.386 77.8769 312.58 78.3807C312.773 78.8807 313.055 79.2727 313.426 79.5568C313.797 79.8371 314.252 79.9773 314.79 79.9773C315.35 79.9773 315.818 79.8295 316.193 79.5341C316.572 79.2348 316.856 78.8333 317.045 78.3295C317.239 77.822 317.335 77.2576 317.335 76.6364C317.335 76.0227 317.241 75.4697 317.051 74.9773C316.866 74.4811 316.583 74.089 316.205 73.8011C315.83 73.5095 315.358 73.3636 314.79 73.3636C314.244 73.3636 313.786 73.5019 313.415 73.7784C313.044 74.0511 312.763 74.4337 312.574 74.9261C312.384 75.4148 312.29 75.9848 312.29 76.6364ZM320.727 81V72.2727H322.068V81H320.727ZM321.409 70.8182C321.148 70.8182 320.922 70.7292 320.733 70.5511C320.547 70.3731 320.455 70.1591 320.455 69.9091C320.455 69.6591 320.547 69.4451 320.733 69.267C320.922 69.089 321.148 69 321.409 69C321.67 69 321.894 69.089 322.08 69.267C322.269 69.4451 322.364 69.6591 322.364 69.9091C322.364 70.1591 322.269 70.3731 322.08 70.5511C321.894 70.7292 321.67 70.8182 321.409 70.8182ZM327.82 81.1818C327.092 81.1818 326.45 80.9981 325.893 80.6307C325.337 80.2595 324.901 79.7367 324.587 79.0625C324.272 78.3845 324.115 77.5833 324.115 76.6591C324.115 75.7424 324.272 74.947 324.587 74.2727C324.901 73.5985 325.339 73.0777 325.899 72.7102C326.46 72.3428 327.107 72.1591 327.842 72.1591C328.411 72.1591 328.859 72.2538 329.189 72.4432C329.522 72.6288 329.776 72.8409 329.95 73.0795C330.128 73.3144 330.267 73.5076 330.365 73.6591H330.479V69.3636H331.82V81H330.524V79.6591H330.365C330.267 79.8182 330.126 80.0189 329.945 80.2614C329.763 80.5 329.503 80.714 329.166 80.9034C328.829 81.089 328.38 81.1818 327.82 81.1818ZM328.001 79.9773C328.539 79.9773 328.994 79.8371 329.365 79.5568C329.736 79.2727 330.018 78.8807 330.212 78.3807C330.405 77.8769 330.501 77.2955 330.501 76.6364C330.501 75.9848 330.407 75.4148 330.217 74.9261C330.028 74.4337 329.748 74.0511 329.376 73.7784C329.005 73.5019 328.547 73.3636 328.001 73.3636C327.433 73.3636 326.96 73.5095 326.581 73.8011C326.206 74.089 325.924 74.4811 325.734 74.9773C325.549 75.4697 325.456 76.0227 325.456 76.6364C325.456 77.2576 325.551 77.822 325.74 78.3295C325.933 78.8333 326.217 79.2348 326.592 79.5341C326.971 79.8295 327.441 79.9773 328.001 79.9773Z" fill="#D6EF0E"/>
<path d="M253.506 111.256C252.528 111.252 251.688 111.011 250.983 110.534C250.282 110.057 249.742 109.366 249.364 108.46C248.989 107.555 248.803 106.466 248.807 105.193C248.807 103.924 248.994 102.843 249.369 101.949C249.748 101.055 250.288 100.375 250.989 99.9091C251.693 99.4394 252.532 99.2045 253.506 99.2045C254.479 99.2045 255.316 99.4394 256.017 99.9091C256.722 100.379 257.263 101.061 257.642 101.955C258.021 102.845 258.208 103.924 258.205 105.193C258.205 106.47 258.015 107.561 257.636 108.466C257.261 109.371 256.723 110.062 256.023 110.54C255.322 111.017 254.483 111.256 253.506 111.256ZM253.506 109.216C254.172 109.216 254.705 108.881 255.102 108.21C255.5 107.54 255.697 106.534 255.693 105.193C255.693 104.311 255.602 103.576 255.42 102.989C255.242 102.402 254.989 101.96 254.659 101.665C254.333 101.369 253.949 101.222 253.506 101.222C252.843 101.222 252.313 101.553 251.915 102.216C251.517 102.879 251.316 103.871 251.312 105.193C251.312 106.087 251.402 106.833 251.58 107.432C251.761 108.027 252.017 108.473 252.347 108.773C252.676 109.068 253.062 109.216 253.506 109.216ZM260.928 111.148C260.553 111.148 260.231 111.015 259.962 110.75C259.696 110.481 259.564 110.159 259.564 109.784C259.564 109.413 259.696 109.095 259.962 108.83C260.231 108.564 260.553 108.432 260.928 108.432C261.291 108.432 261.609 108.564 261.882 108.83C262.155 109.095 262.291 109.413 262.291 109.784C262.291 110.034 262.227 110.263 262.098 110.472C261.973 110.676 261.808 110.841 261.604 110.966C261.399 111.087 261.174 111.148 260.928 111.148ZM264.256 111V109.227L268.398 105.392C268.75 105.051 269.045 104.744 269.284 104.472C269.527 104.199 269.71 103.932 269.835 103.67C269.96 103.405 270.023 103.119 270.023 102.812C270.023 102.472 269.945 102.178 269.79 101.932C269.634 101.682 269.422 101.491 269.153 101.358C268.884 101.222 268.58 101.153 268.239 101.153C267.883 101.153 267.572 101.225 267.307 101.369C267.042 101.513 266.837 101.72 266.693 101.989C266.549 102.258 266.477 102.578 266.477 102.949H264.142C264.142 102.187 264.314 101.527 264.659 100.966C265.004 100.405 265.487 99.9716 266.108 99.6648C266.729 99.358 267.445 99.2045 268.256 99.2045C269.089 99.2045 269.814 99.3523 270.432 99.6477C271.053 99.9394 271.536 100.345 271.881 100.864C272.225 101.383 272.398 101.977 272.398 102.648C272.398 103.087 272.311 103.521 272.136 103.949C271.966 104.377 271.661 104.852 271.222 105.375C270.782 105.894 270.163 106.517 269.364 107.244L267.665 108.909V108.989H272.551V111H264.256ZM273.908 108.955V107.017L278.766 99.3636H280.436V102.045H279.447L276.385 106.892V106.983H283.288V108.955H273.908ZM279.493 111V108.364L279.538 107.506V99.3636H281.845V111H279.493ZM284.996 111V99.3636H292.837V101.392H287.456V104.165H292.433V106.193H287.456V108.972H292.859V111H284.996ZM294.349 101.392V99.3636H303.906V101.392H300.344V111H297.912V101.392H294.349ZM305.48 111V99.3636H307.94V104.165H312.935V99.3636H315.389V111H312.935V106.193H307.94V111H305.48Z" fill="#FFFFFD"/>
<rect x="70.5" y="139.5" width="263" height="51" rx="7.5" stroke="#D6EF0E"/>
<path d="M159.011 170.5V158.864H163.602C164.485 158.864 165.237 159.032 165.858 159.369C166.479 159.703 166.953 160.167 167.278 160.761C167.608 161.352 167.773 162.034 167.773 162.807C167.773 163.58 167.606 164.261 167.273 164.852C166.939 165.443 166.456 165.903 165.824 166.233C165.195 166.562 164.434 166.727 163.54 166.727H160.614V164.756H163.142C163.616 164.756 164.006 164.674 164.312 164.511C164.623 164.345 164.854 164.116 165.006 163.824C165.161 163.528 165.239 163.189 165.239 162.807C165.239 162.42 165.161 162.083 165.006 161.795C164.854 161.504 164.623 161.278 164.312 161.119C164.002 160.956 163.608 160.875 163.131 160.875H161.472V170.5H159.011ZM171.746 158.864V170.5H169.325V158.864H171.746ZM176.173 170.665C175.616 170.665 175.12 170.568 174.685 170.375C174.249 170.178 173.904 169.888 173.651 169.506C173.401 169.119 173.276 168.638 173.276 168.062C173.276 167.578 173.365 167.17 173.543 166.841C173.721 166.511 173.963 166.246 174.27 166.045C174.577 165.845 174.925 165.693 175.315 165.591C175.709 165.489 176.122 165.417 176.554 165.375C177.062 165.322 177.471 165.273 177.781 165.227C178.092 165.178 178.317 165.106 178.457 165.011C178.598 164.917 178.668 164.777 178.668 164.591V164.557C178.668 164.197 178.554 163.919 178.327 163.722C178.103 163.525 177.785 163.426 177.372 163.426C176.937 163.426 176.59 163.523 176.332 163.716C176.075 163.905 175.904 164.144 175.821 164.432L173.582 164.25C173.696 163.72 173.92 163.261 174.253 162.875C174.586 162.485 175.016 162.186 175.543 161.977C176.073 161.765 176.687 161.659 177.384 161.659C177.868 161.659 178.332 161.716 178.776 161.83C179.223 161.943 179.618 162.119 179.963 162.358C180.312 162.597 180.586 162.903 180.787 163.278C180.988 163.65 181.088 164.095 181.088 164.614V170.5H178.793V169.29H178.724C178.584 169.562 178.397 169.803 178.162 170.011C177.927 170.216 177.645 170.377 177.315 170.494C176.986 170.608 176.605 170.665 176.173 170.665ZM176.866 168.994C177.223 168.994 177.537 168.924 177.81 168.784C178.082 168.64 178.296 168.447 178.452 168.205C178.607 167.962 178.685 167.687 178.685 167.381V166.455C178.609 166.504 178.505 166.549 178.372 166.591C178.243 166.629 178.098 166.665 177.935 166.699C177.772 166.729 177.609 166.758 177.446 166.784C177.283 166.807 177.135 166.828 177.003 166.847C176.719 166.888 176.471 166.955 176.259 167.045C176.046 167.136 175.882 167.259 175.764 167.415C175.647 167.566 175.588 167.756 175.588 167.983C175.588 168.312 175.707 168.564 175.946 168.739C176.188 168.909 176.495 168.994 176.866 168.994ZM186.909 170.67C186.015 170.67 185.246 170.481 184.602 170.102C183.962 169.72 183.47 169.189 183.125 168.511C182.784 167.833 182.614 167.053 182.614 166.17C182.614 165.277 182.786 164.492 183.131 163.818C183.479 163.14 183.973 162.612 184.614 162.233C185.254 161.85 186.015 161.659 186.898 161.659C187.659 161.659 188.326 161.797 188.898 162.074C189.47 162.35 189.922 162.739 190.256 163.239C190.589 163.739 190.773 164.326 190.807 165H188.523C188.458 164.564 188.288 164.214 188.011 163.949C187.739 163.68 187.381 163.545 186.938 163.545C186.562 163.545 186.235 163.648 185.955 163.852C185.678 164.053 185.462 164.347 185.307 164.733C185.152 165.119 185.074 165.587 185.074 166.136C185.074 166.693 185.15 167.167 185.301 167.557C185.456 167.947 185.674 168.244 185.955 168.449C186.235 168.653 186.562 168.756 186.938 168.756C187.214 168.756 187.462 168.699 187.682 168.585C187.905 168.472 188.089 168.307 188.233 168.091C188.381 167.871 188.477 167.608 188.523 167.301H190.807C190.769 167.968 190.587 168.555 190.261 169.062C189.939 169.566 189.494 169.96 188.926 170.244C188.358 170.528 187.686 170.67 186.909 170.67ZM196.334 170.67C195.436 170.67 194.663 170.489 194.016 170.125C193.372 169.758 192.875 169.239 192.527 168.568C192.179 167.894 192.004 167.097 192.004 166.176C192.004 165.278 192.179 164.491 192.527 163.812C192.875 163.134 193.366 162.606 193.999 162.227C194.635 161.848 195.381 161.659 196.237 161.659C196.813 161.659 197.349 161.752 197.845 161.938C198.345 162.119 198.781 162.394 199.152 162.761C199.527 163.129 199.819 163.591 200.027 164.148C200.235 164.701 200.339 165.348 200.339 166.091V166.756H192.97V165.256H198.061C198.061 164.907 197.985 164.598 197.834 164.33C197.682 164.061 197.472 163.85 197.203 163.699C196.938 163.544 196.629 163.466 196.277 163.466C195.91 163.466 195.584 163.551 195.3 163.722C195.019 163.888 194.8 164.114 194.641 164.398C194.482 164.678 194.4 164.991 194.396 165.335V166.761C194.396 167.193 194.476 167.566 194.635 167.881C194.798 168.195 195.027 168.438 195.322 168.608C195.618 168.778 195.968 168.864 196.374 168.864C196.643 168.864 196.889 168.826 197.112 168.75C197.336 168.674 197.527 168.561 197.686 168.409C197.845 168.258 197.966 168.072 198.05 167.852L200.288 168C200.175 168.538 199.942 169.008 199.589 169.409C199.241 169.807 198.79 170.117 198.237 170.341C197.688 170.561 197.054 170.67 196.334 170.67ZM207.673 170.5H205.037L209.054 158.864H212.224L216.236 170.5H213.599L210.685 161.523H210.594L207.673 170.5ZM207.509 165.926H213.736V167.847H207.509V165.926ZM221.339 170.5V158.864H225.999C226.855 158.864 227.569 158.991 228.141 159.244C228.713 159.498 229.143 159.85 229.43 160.301C229.718 160.748 229.862 161.263 229.862 161.847C229.862 162.301 229.771 162.701 229.589 163.045C229.408 163.386 229.158 163.667 228.839 163.886C228.525 164.102 228.165 164.256 227.76 164.347V164.46C228.203 164.479 228.618 164.604 229.004 164.835C229.394 165.066 229.711 165.39 229.953 165.807C230.196 166.22 230.317 166.712 230.317 167.284C230.317 167.902 230.163 168.453 229.857 168.938C229.554 169.419 229.105 169.799 228.51 170.08C227.915 170.36 227.182 170.5 226.311 170.5H221.339ZM223.8 168.489H225.805C226.491 168.489 226.991 168.358 227.305 168.097C227.62 167.831 227.777 167.479 227.777 167.04C227.777 166.718 227.699 166.434 227.544 166.188C227.389 165.941 227.167 165.748 226.879 165.608C226.595 165.468 226.256 165.398 225.862 165.398H223.8V168.489ZM223.8 163.733H225.624C225.961 163.733 226.26 163.674 226.521 163.557C226.786 163.436 226.995 163.265 227.146 163.045C227.302 162.826 227.379 162.562 227.379 162.256C227.379 161.835 227.23 161.496 226.93 161.239C226.635 160.981 226.214 160.852 225.669 160.852H223.8V163.733ZM231.872 170.5V161.773H234.293V170.5H231.872ZM233.088 160.648C232.728 160.648 232.42 160.528 232.162 160.29C231.908 160.047 231.781 159.758 231.781 159.42C231.781 159.087 231.908 158.801 232.162 158.562C232.42 158.32 232.728 158.199 233.088 158.199C233.448 158.199 233.755 158.32 234.009 158.562C234.266 158.801 234.395 159.087 234.395 159.42C234.395 159.758 234.266 160.047 234.009 160.29C233.755 160.528 233.448 160.648 233.088 160.648ZM239.447 170.642C238.785 170.642 238.184 170.472 237.646 170.131C237.112 169.786 236.688 169.28 236.374 168.614C236.063 167.943 235.908 167.121 235.908 166.148C235.908 165.148 236.069 164.316 236.391 163.653C236.713 162.987 237.141 162.489 237.675 162.159C238.213 161.826 238.802 161.659 239.442 161.659C239.93 161.659 240.338 161.742 240.663 161.909C240.993 162.072 241.258 162.277 241.459 162.523C241.663 162.765 241.819 163.004 241.925 163.239H241.999V158.864H244.413V170.5H242.027V169.102H241.925C241.811 169.345 241.65 169.585 241.442 169.824C241.237 170.059 240.97 170.254 240.641 170.409C240.315 170.564 239.917 170.642 239.447 170.642ZM240.214 168.716C240.605 168.716 240.934 168.61 241.203 168.398C241.476 168.182 241.684 167.881 241.828 167.494C241.976 167.108 242.05 166.655 242.05 166.136C242.05 165.617 241.978 165.167 241.834 164.784C241.69 164.402 241.482 164.106 241.209 163.898C240.936 163.689 240.605 163.585 240.214 163.585C239.817 163.585 239.482 163.693 239.209 163.909C238.936 164.125 238.73 164.424 238.589 164.807C238.449 165.189 238.379 165.633 238.379 166.136C238.379 166.644 238.449 167.093 238.589 167.483C238.733 167.869 238.94 168.172 239.209 168.392C239.482 168.608 239.817 168.716 240.214 168.716Z" fill="#D6EF0E"/>
</g>
<defs>
<filter id="filter0_d_1_545" x="0" y="0.5" width="404" height="269.5" filterUnits="userSpaceOnUse" color-interpolation-filters="sRGB">
<feFlood flood-opacity="0" result="BackgroundImageFix"/>
<feColorMatrix in="SourceAlpha" type="matrix" values="0 0 0 0 0 0 0 0 0 0 0 0 0 0 0 0 0 0 127 0" result="hardAlpha"/>
<feOffset dy="9"/>
<feGaussianBlur stdDeviation="25"/>
<feComposite in2="hardAlpha" operator="out"/>
<feColorMatrix type="matrix" values="0 0 0 0 0.0883646 0 0 0 0 0.141148 0 0 0 0 0.255512 0 0 0 0.04 0"/>
<feBlend mode="normal" in2="BackgroundImageFix" result="effect1_dropShadow_1_545"/>
<feBlend mode="normal" in="SourceGraphic" in2="effect1_dropShadow_1_545" result="shape"/>
</filter>
</defs>
</svg>
